Patient4_TMGait_0pt4_01_left_40_EMG.mot
version=1
nRows=37
nColumns=33
inDegrees=no
endheader
time	1LAddLong	2LGlutMax	3LGlutMed	4LIliopsoas	5LSemiMemb	6LBicFemLong	7LRecFem	8LVastMed	9LVastLat	10LGasMed	11LTibAnt	12lTibPost	13LPeroneusLong	14LSol	15LExtDigLong	16LFlexDigLong	17RAddLong	18RGlutMax	19RGlutMed	20RIliopsoas	21RSemiMemb	22RBicFemLong	23RRecFem	24RVastMed	25RVastLat	26RGasMed	27RTibAnt	28RTibPost	29RPeroneusLong	30RSol	31RExtDigLong	32RFlexDigLong
50.675	0.011139	-0.19501	0.064545	0.011139	-0.02655	0.1918	-0.17609	-0.019531	0.020752	0.043488	0.075378	0.13809	0.01709	0.4451	0.093231	0.02655	0.002594	0.12985	-0.72922	0.045471	0.010376	0.02655	0.62042	-0.001221	0.045776	0.015411	-0.13153	-0.015564	0.74509	0.34653	0.001678	-0.008545
50.676	0.012054	-0.19943	-0.070801	0.009613	-0.035706	-0.007477	-0.26077	-0.002747	0.05722	0.075226	0.088348	0.13107	-0.16617	0.28214	0.053864	0.036163	0.007019	0.10452	-0.87524	0.072937	0.02121	0.042114	0.57587	0.012054	0.071411	0.020752	-0.098419	-0.29114	0.27359	-0.053406	0.002289	-0.005798
50.677	-0.003662	-0.17227	-0.02121	-0.031586	-0.079193	-0.2478	-0.34088	0.000763	-0.005798	0.10834	0.039368	0.11673	-0.035248	-0.009003	-0.10712	0.02533	0.00824	0.099945	-0.68222	0.016174	0.029449	0.030365	0.50964	0.001831	0.070343	0.024719	0.015564	0.10452	-0.64301	-0.5693	0.001984	-0.002899
50.678	-0.009613	-0.15381	0.13062	-0.000763	-0.13672	-0.044098	-0.23224	0.006561	-0.17441	0.092316	0.052338	0.11673	-0.10529	0.082092	-0.0383	0.019379	0.034943	0.18036	-0.12283	-0.033264	0.042877	0.052643	0.54459	0.041046	0.052795	0.013275	0.089111	0.022278	-0.67841	-0.69595	0.000458	-0.011902
50.679	-0.033264	-0.13397	0.029755	0.018616	-0.20187	0.031738	-0.16922	0.012817	-0.069275	-0.007172	0.072174	0.099945	-0.37949	0.099182	-0.099335	0.019379	0.059357	0.14297	-0.018005	-0.070038	0.024567	0.013275	0.60349	-0.005798	0.050201	-0.002899	0.080566	-0.033417	-0.177	-0.84824	0.000153	-0.013123
50.68	-0.017395	-0.10483	-0.062561	0.025635	-0.18463	-0.001526	-0.12421	0.007324	0.14008	-0.071106	0.053558	0.07843	-0.009766	-0.20065	-0.12299	0.015106	0.055542	0.11902	-0.33737	-0.019531	0.002747	0.010376	0.63553	0.033569	0.061035	0.005341	0.003357	-0.031891	0.39871	-0.54138	-0.003357	-0.019531
50.681	0.014954	-0.086517	-0.009308	0.01236	-0.063171	-0.080872	-0.1561	0.004578	0.20523	0.045166	0.026855	0.081177	-0.21896	-0.14053	0.044403	0.019531	0.022888	0.14099	-0.62714	0.061951	-0.007324	0.020142	0.54749	0.032043	0.069733	0.00061	0.083313	-0.058899	0.70236	0.17929	0.000153	-0.022125
50.682	0.010834	-0.020447	0.07782	0.009308	0.080566	0.029755	-0.15106	0.020905	0.20691	0.14877	0.000153	0.065155	-0.022888	0.040588	0.13351	0.017395	0.023956	0.15442	-0.48859	0.044098	-0.026855	0.023041	0.52231	-0.033875	0.054169	-0.002441	0.1387	-0.087128	0.77942	0.61356	0.001831	-0.007477
50.683	0.003815	-0.021515	-0.027771	-0.005493	0.093842	0.063171	-0.16602	0.027008	0.093384	0.18997	0.015259	0.050201	0.075226	0.112	0.19638	0.033417	0.050354	0.084991	-0.5072	0.042725	-0.021667	0.027466	0.64743	-0.043335	0.055084	0.005188	0.11078	-0.045929	0.85434	0.60715	0.002289	-0.019836
50.684	0.003357	0.032959	-0.079041	0.014954	0.045929	0.078125	-0.2092	0.019073	0.006561	0.2388	0.042572	0.040588	0.01297	0.072174	0.17944	0.030975	0.024414	0.079346	-0.39215	0.046082	-0.021667	0.044861	0.78522	-0.024872	0.036163	0.004425	0.15167	-0.012512	-0.015106	-0.019073	-0.001068	-0.02182
50.685	0.004883	0.074768	-0.15854	0.004272	0.036774	0.1062	-0.26825	0.010071	-0.019379	0.047913	0.016327	0.02533	0.27954	-0.076447	0.089264	0.006256	-0.02121	0.027924	-0.46951	-0.006409	-0.02594	0.020294	0.73639	-0.059509	0.053864	0.005035	0.14969	-0.019073	-1.031	-0.57907	0.003052	-0.019379
50.686	0.023193	0.11276	-0.21103	0.00946	0.032196	0.027161	-0.32761	-0.004425	0.08255	-0.11597	-0.027771	0.009308	0.34927	-0.15121	0.042877	0.015564	-0.032501	-0.034637	-0.63629	-0.018311	-0.039673	0.033417	0.578	-0.043793	0.076447	0.005341	0.1001	-0.092163	-1.5726	-0.88898	0.009918	-0.017853
50.687	0.028839	0.14664	-0.027313	0.018616	0.023193	-0.022125	-0.28854	-0.024109	0.12054	-0.13168	-0.035248	-0.009918	0.11215	-0.13748	-0.001526	0.011292	-0.006409	-0.099335	-0.52536	-0.019989	-0.056152	0.04303	0.64362	-0.097809	0.08316	0.012512	-0.13428	-0.13962	-0.32089	-1.0114	-0.001221	-0.015411
50.688	0.016022	0.12161	0.10986	0.02594	0.055084	-0.017395	-0.31509	-0.026093	0.040131	-0.24048	-0.048523	-0.020447	0.096893	0.016632	-0.054321	0.01236	-0.010071	-0.12543	-0.31525	-0.005493	-0.052185	0.044403	0.73807	-0.08255	0.10941	-0.005646	-0.20859	-0.021515	0.53635	-0.94406	0.000153	-0.018616
50.689	0.006866	0.20447	0.10513	0.000458	0.036316	0.060577	-0.25345	0.001831	-0.16571	-0.16556	-0.08194	-0.026398	-0.27741	0.083618	-0.018616	0.00473	0.002136	-0.19287	-0.32501	0.008087	-0.040283	0.032501	0.75302	-0.025635	0.1091	0.001984	-0.082092	0.0383	1.2418	-0.23041	0.000763	-0.013733
50.69	-0.000305	0.18921	0.13809	-0.014954	0.046387	0.14999	-0.18692	0.016479	-0.25986	-0.11124	-0.086365	-0.03006	-0.26306	0.078125	-0.018158	-0.004272	-0.04364	-0.21393	-0.51895	0.025787	-0.044556	0.03891	0.58227	-0.024872	0.10407	-0.001831	-0.058746	-0.010376	0.41245	0.71701	0.002594	-0.022583
50.691	0.009613	0.19318	-0.013733	-0.019073	0.031128	0.1506	-0.19974	0.023193	0.033417	-0.10407	0.021362	-0.042267	-0.23727	0.10391	-0.040741	-0.001373	-0.060883	-0.24399	-0.45914	0.040741	-0.049744	0.039368	0.51224	-0.08316	0.091858	-0.013123	-0.092468	-0.16541	-0.12726	0.83481	0	-0.016327
50.692	0.00473	0.23224	0.004425	-0.008392	0.009613	0.11536	-0.27023	0.021362	0.15839	-0.10407	0.20065	-0.041809	-0.2269	0.02655	-0.18356	0.001831	-0.049438	-0.24384	-0.29724	0.028534	-0.054169	0.029449	0.43869	-0.075531	0.092163	-0.024109	-0.10681	-0.16419	0.20142	0.053864	0.004272	-0.017242
50.693	0.004425	0.17716	0.003967	-0.002136	-0.005188	0.093384	-0.31937	0.00946	0.26184	-0.07431	0.25177	-0.047607	-0.103	-0.1294	0.059357	-0.009308	-0.061951	-0.26657	-0.233	0.009003	-0.058746	0.031586	0.31647	-0.081482	0.07782	-0.028076	-0.098114	0.11932	0.70648	-0.75546	-0.00351	-0.017242
50.694	0.001526	0.14313	-0.033112	0.028687	-0.020752	0.079651	-0.26871	-0.016022	0.36407	-0.038452	0.17166	-0.056915	0.16113	-0.1799	0.72266	-0.002136	-0.070496	-0.2742	-0.31067	0.017853	-0.057068	0.008698	0.25574	-0.085144	0.079193	-0.019379	-0.042114	0.15503	0.26062	-0.7074	0.001678	-0.008545
50.695	0.017242	0.1207	-0.10025	0.001678	-0.01236	0.080414	-0.18723	-0.036926	0.41153	-0.03952	-0.091248	-0.062103	0.39398	0.046539	0.13657	-0.001678	-0.041809	-0.22705	-0.09964	-0.010529	-0.049896	0.003815	0.24475	0.016327	0.080566	-0.011597	0.018005	0.18204	-0.32211	-0.41199	-0.00061	-0.010071
50.696	-0.027008	0.13534	-0.098724	-0.005341	-0.010681	0.072784	-0.085907	-0.046082	0.23025	-0.044098	0.093842	-0.069122	0.55588	0.21896	1.1676	-0.003815	-0.036011	-0.19272	0.30121	-0.048676	-0.041504	0.006866	0.52658	0.044098	0.11383	-0.007019	0.057526	0.088654	-0.5838	-0.22644	0.00061	-0.016327
50.697	0.022125	0.1474	-0.121	0.007324	-0.020142	0.084839	-0.1033	-0.028229	-0.3244	0.007019	-0.027008	-0.072327	0.39352	0.31754	0.18723	-0.014801	0.001526	-0.18982	0.31662	-0.007629	-0.032196	0.015259	0.5864	0.071869	0.1059	-0.016632	0.086517	0.013733	-0.58319	0.45395	-0.00061	-0.002747
50.698	0.007629	0.16129	-0.13733	0.012054	-0.023193	0.12497	-0.13504	0.016174	-0.53833	0.005798	0.032806	-0.077667	-0.098572	0.37705	-0.72052	-0.020294	0.03952	-0.17639	-0.49957	0.070953	-0.037994	0.015564	0.61264	0.071869	0.079498	-0.02533	0.06958	0.012817	-0.24536	0.43961	-0.000763	-0.008698
50.699	-0.007935	0.21057	-0.003662	0.012512	-0.031128	0.14038	-0.15137	0.019836	-0.42541	0.032349	0.17334	-0.068512	-0.77148	0.35675	-0.054016	-0.010834	0.046539	-0.14145	-0.75394	0.038605	-0.035248	0.002136	0.52033	0.00824	0.077667	-0.015259	-0.008087	-0.002594	0.22964	0.15671	0.004425	-0.012054
50.7	-0.002594	0.22537	0.14282	0.012054	-0.037842	0.17548	-0.2124	0.033569	-0.18539	0.01709	0.13825	-0.076599	-0.65781	0.19089	0.058746	-0.013123	0.059814	-0.077362	-0.67978	0.031586	-0.038452	-0.001068	0.55695	0.009308	0.065308	-0.014648	-0.082245	-0.009003	0.34943	-0.072784	-0.000458	-0.014801
50.701	0.005341	0.22568	0.2623	-0.030518	-0.028534	0.23132	-0.23865	0.016022	-0.055389	-0.006866	-0.11932	-0.070496	-0.42862	0.11917	-0.26001	-0.014954	0.067291	-0.066223	-0.53223	-0.027008	-0.047607	0.024567	0.52155	0.004425	0.055695	-0.012665	-0.055084	-0.007172	0.49408	-0.22766	0	-0.009308
50.702	0.013123	0.22766	0.10742	-0.029755	-0.003815	0.24826	-0.23117	-0.018616	0.022125	0.000458	-0.28473	-0.065765	0.52185	0.020752	-0.82336	-0.00473	0.077209	0.013428	-0.28366	-0.018463	-0.05722	0.023346	0.45685	0.021667	0.055237	-0.0177	-0.0383	-0.013885	0.33005	-0.15869	-0.000458	-0.013123
50.703	-0.012054	0.22385	0.001984	-0.010376	0.004578	0.24979	-0.15427	-0.049591	-0.023499	0.00061	-0.25635	-0.076447	2.0412	-0.10193	-1.1176	-0.016327	0.075684	0.056915	0.012817	-0.014191	-0.058441	0.017548	0.42374	0.017853	0.066071	-0.001373	0.075073	0.002136	-0.49942	-0.17807	0.000458	-0.017242
50.704	-0.010681	0.2153	-0.044556	0.007324	0.010681	0.078583	-0.13275	-0.040741	-0.084534	0.043182	-0.15533	-0.06073	1.6145	-0.13321	-0.82657	-0.015106	0.054474	0.076752	0.093079	-0.0914	-0.059052	0.02594	0.38559	0.021057	0.059509	-0.001831	0.11383	-0.11154	-0.48218	-0.22903	-0.001068	-0.019531
50.705	-0.015869	0.20813	-0.034027	-0.010223	-0.005035	0.13672	-0.11917	-0.010071	0.027161	0.070343	-0.031128	-0.060577	-0.065308	0.084076	-0.40619	0.000305	0.008087	0.071716	-0.27054	-0.11917	-0.048981	0.031433	0.3804	0.078735	0.075531	-0.001221	0.066071	-0.00412	-0.067444	-0.22354	0.002136	-0.011749
50.706	-0.011139	0.22888	0.014954	0.00473	-0.031433	0.13382	-0.16327	0.013275	0.070801	-0.06485	-0.056305	-0.057831	-0.18738	0.021362	0.048676	0.019531	-0.005951	0.064392	-0.35233	-0.038757	-0.041199	0.00885	0.47989	0.08667	0.07019	-0.001068	0.054779	-0.019531	-0.33035	-0.1265	-0.002899	-0.017853
50.707	-0.005188	0.23605	0.012817	0.010681	-0.076599	-0.24246	-0.12787	0.005646	-0.004272	-0.084839	-0.070038	-0.064087	-0.88455	0.034027	0.23911	0.015411	0.03479	0.02655	-0.24185	0.045013	-0.038452	0.028839	0.49454	0.08728	0.074463	-0.000458	-0.022736	-0.023041	-0.46982	-0.089264	-0.005188	-0.006409
50.708	-0.000458	0.29159	-0.0383	0.010071	-0.092621	-0.23285	-0.08606	-0.017548	-0.06897	-0.032959	-0.34775	-0.052338	-0.99899	0.018005	0.11597	0.021057	0.043488	0.043945	-0.074158	0.13275	-0.043335	0.018005	0.17868	0.014801	0.082092	-0.006561	-0.085144	-0.018005	-0.7663	-0.1767	-0.002747	-0.012512
50.709	-0.009003	0.31265	-0.13763	-0.00061	-0.020905	-0.23361	-0.088348	0.000305	-0.076752	-0.002747	-0.14236	-0.059967	0.37323	-0.15472	0.063019	0.003052	0.071869	-0.048828	-0.028839	0.1828	-0.050812	0.015869	0.069427	-0.051575	0.080566	-0.00351	-0.095673	-0.018921	-0.42587	-0.1326	0.000916	-0.01297
50.71	0.003967	0.35568	-0.18448	-0.016785	0.037842	-0.097351	-0.016632	0.006256	-0.076141	-0.007019	0.049591	-0.048065	0.42313	-0.13825	0.11383	0.014648	0.086365	-0.10101	-0.02182	0.22705	-0.042114	0.006866	0.097961	-0.10071	0.039673	-0.004272	-0.078278	-0.018311	-0.52597	-0.095215	-0.00061	-0.003967
50.711	-0.003204	0.3775	-0.19104	0.001984	0.087128	0.09491	-0.01297	0.039215	-0.045471	-0.00061	0.04715	-0.040436	-0.20905	-0.43945	-0.13107	0.005493	0.056458	-0.17425	-0.12833	0.14877	-0.047913	0.013885	0.089111	-0.1329	0.055847	-0.009003	0.076294	-0.018616	-0.58929	-0.08606	-0.002136	-0.003357
